<?xml version="1.0" encoding="UTF-8"?>
<svg version="1.1" xmlns="http://www.w3.org/2000/svg" width="322" height="300">
<path d="M0 0 C12.72115385 4.24038462 12.72115385 4.24038462 16 9 C18.65175223 14.79663733 18.22483997 20.63884164 18.125 26.875 C18.11597656 27.94492188 18.10695313 29.01484375 18.09765625 30.1171875 C18.07419342 32.74502439 18.04136459 35.37239406 18 38 C18.66 36.68 19.32 35.36 20 34 C20 35.32 20 36.64 20 38 C21.99468882 38.68239354 23.99657266 39.34370484 26 40 C26.73863281 40.26425781 27.47726563 40.52851563 28.23828125 40.80078125 C37.14899512 43.79944254 45.18928128 44.17349304 54.02734375 40.75390625 C56 40 56 40 57.9375 39.53125 C61.31504329 38.66127673 64.45287316 37.19510172 67.66015625 35.83984375 C70 35 70 35 73 35 C73.10957031 35.68707031 73.21914062 36.37414062 73.33203125 37.08203125 C73.49058594 37.98308594 73.64914063 38.88414063 73.8125 39.8125 C74.03873047 41.15248047 74.03873047 41.15248047 74.26953125 42.51953125 C75.05395393 45.18321256 75.88627799 46.25690322 78 48 C77 51 77 51 75.07421875 51.984375 C74.28660156 52.23703125 73.49898437 52.4896875 72.6875 52.75 C71.51767578 53.14445312 71.51767578 53.14445312 70.32421875 53.546875 C66.31187595 54.32911326 63.50551608 52.87795504 60 51 C60 52.65 60 54.3 60 56 C46.76061912 58.97382032 33.94342225 60.51372757 21 55 C18.6875 52.89453125 18.6875 52.89453125 17 51 C16.505 55.95 16.505 55.95 16 61 C15.34 61 14.68 61 14 61 C14 61.66 14 62.32 14 63 C16.53638528 64.62600413 19.16535208 66.02729536 21.8125 67.46484375 C22.534375 67.97144531 23.25625 68.47804688 24 69 C24 69.99 24 70.98 24 72 C24.66 72 25.32 72 26 72 C26 72.99 26 73.98 26 75 C30.16822149 78.22047768 30.16822149 78.22047768 35.15234375 78.71484375 C35.88582031 78.49957031 36.61929688 78.28429687 37.375 78.0625 C42.58819592 76.54755418 46.18749078 77.71429923 51 80 C54.20109212 81.92065527 54.80336972 82.41010915 56 86 C56.433125 87.03125 56.86625 88.0625 57.3125 89.125 C58.24946441 94.40607213 56.70848975 97.49746237 54 102 C51.20477418 105.38815251 49.17631083 106.77150609 44.73046875 107.23828125 C38.93908745 107.40730774 35.48042678 107.05371947 31 103 C27.28346356 98.59883843 26.54236505 95.72043683 27 90 C26.319375 89.7525 25.63875 89.505 24.9375 89.25 C21.43134917 87.75802092 18.28379632 85.93164489 15 84 C15 84.99 15 85.98 15 87 C11.63729628 85.72468323 8.57004868 84.27780195 5.47265625 82.453125 C4.17557739 81.68995972 4.17557739 81.68995972 2.85229492 80.91137695 C1.9316626 80.36312256 1.01103027 79.81486816 0.0625 79.25 C-0.89229248 78.6830542 -1.84708496 78.1161084 -2.83081055 77.53198242 C-10.05038739 73.21910332 -17.20304756 68.80441067 -24.3125 64.3125 C-25.26697021 63.71276367 -26.22144043 63.11302734 -27.20483398 62.49511719 C-28.08212158 61.93598633 -28.95940918 61.37685547 -29.86328125 60.80078125 C-30.63969971 60.30747314 -31.41611816 59.81416504 -32.21606445 59.3059082 C-34 58 -34 58 -35 56 C-34.34 55.67 -33.68 55.34 -33 55 C-33.74121094 55.28875 -34.48242188 55.5775 -35.24609375 55.875 C-50.72913964 61.33291581 -63.87357891 59.58983086 -79 54 C-84.06938852 52.21118392 -89.1209851 51.10324047 -94.390625 50.07421875 C-97 49 -97 49 -98.359375 46.39453125 C-98.57078125 45.60433594 -98.7821875 44.81414062 -99 44 C-98.2884375 43.4121875 -98.2884375 43.4121875 -97.5625 42.8125 C-95.64051301 40.58299509 -95.51273969 38.85669256 -95 36 C-94.34 35.34 -93.68 34.68 -93 34 C-93.66 33.67 -94.32 33.34 -95 33 C-90.25 31.875 -90.25 31.875 -88 33 C-87.21625 33.0825 -86.4325 33.165 -85.625 33.25 C-82.12819206 34.24908798 -81.02726646 36.07172622 -79 39 C-78.67 38.67 -78.34 38.34 -78 38 C-75.5625 37.8125 -75.5625 37.8125 -73 38 C-72.34 38.66 -71.68 39.32 -71 40 C-69.989375 40.33 -68.97875 40.66 -67.9375 41 C-65 42 -65 42 -64 44 C-48.51430167 44.69386203 -48.51430167 44.69386203 -35 38 C-34.505 37.01 -34.505 37.01 -34 36 C-32.00632882 35.63069477 -30.00471785 35.30367324 -28 35 C-26.0507059 34.36864969 -24.112824 33.70105506 -22.1875 33 C-17.03596357 31.23357541 -12.43724011 30.26740525 -7 30 C-6.67 30.33 -6.34 30.66 -6 31 C-5.34 30.34 -4.68 29.68 -4 29 C-3.01 30.98 -3.01 30.98 -2 33 C-2.00523682 32.31486328 -2.01047363 31.62972656 -2.01586914 30.92382812 C-2.03681445 27.78256163 -2.0497156 24.64130989 -2.0625 21.5 C-2.07087891 20.42234375 -2.07925781 19.3446875 -2.08789062 18.234375 C-2.10569473 12.39462795 -1.98121539 6.76378272 -1 1 C-0.67 0.67 -0.34 0.34 0 0 Z M-6 35 C-6.33 38.3 -6.66 41.6 -7 45 C-5.0044484 41.00889681 -4.80453935 39.30013434 -5 35 C-5.33 35 -5.66 35 -6 35 Z M-4 35 C-4 39.29 -4 43.58 -4 48 C-3.67 48 -3.34 48 -3 48 C-3 43.71 -3 39.42 -3 35 C-3.33 35 -3.66 35 -4 35 Z M20 40 C19.67 41.98 19.34 43.96 19 46 C19.66 46 20.32 46 21 46 C21 44.02 21 42.04 21 40 C20.67 40 20.34 40 20 40 Z M-79 41 C-78.67 41.99 -78.34 42.98 -78 44 C-77.67 43.01 -77.34 42.02 -77 41 C-77.66 41 -78.32 41 -79 41 Z M-12 45 C-12 45.33 -12 45.66 -12 46 C-10.35 46 -8.7 46 -7 46 C-7 45.67 -7 45.34 -7 45 C-8.65 45 -10.3 45 -12 45 Z M-23.25 49 C-24.32765625 49.556875 -25.4053125 50.11375 -26.515625 50.6875 C-27.33546875 51.120625 -28.1553125 51.55375 -29 52 C-28.01 52.495 -28.01 52.495 -27 53 C-24.39709035 52.07495875 -24.39709035 52.07495875 -21.5625 50.6875 C-20.11037109 50.01267578 -20.11037109 50.01267578 -18.62890625 49.32421875 C-15.87151801 48.00179906 -15.87151801 48.00179906 -13 46 C-17.45651288 46 -19.35000997 46.96522259 -23.25 49 Z M-81 48 C-80 50 -80 50 -80 50 Z M-18 50 C-14.535 49.505 -14.535 49.505 -11 49 C-14.48581856 47.7979936 -14.67992344 47.78661563 -18 50 Z M-7 46 C-7 46.66 -7 47.32 -7 48 C-7.99 48.33 -8.98 48.66 -10 49 C-7.525 49.99 -7.525 49.99 -5 51 C-5.33 49.35 -5.66 47.7 -6 46 C-6.33 46 -6.66 46 -7 46 Z M-4 49 C-3.37466625 51.52363988 -3.37466625 51.52363988 -2 54 C0.54775306 54.89386164 0.54775306 54.89386164 3 55 C3 55.66 3 56.32 3 57 C4.98 57.99 6.96 58.98 9 60 C9.66 59.34 10.32 58.68 11 58 C9.44210317 56.86863414 7.87846143 55.74517679 6.3125 54.625 C5.44238281 53.99851562 4.57226562 53.37203125 3.67578125 52.7265625 C1.16403048 51.10584157 -1.19299187 50.00141912 -4 49 Z M35 88 C33.80691838 91.65878362 33.67332256 93.29997692 35.3125 96.8125 C37.44795283 99.58067959 38.3677791 99.90165453 41.8125 100.4375 C45.25063829 100.26802531 45.25063829 100.26802531 47.9375 97.375 C50.33033485 94.17749335 50.33033485 94.17749335 49.8125 90.625 C49.544375 89.75875 49.27625 88.8925 49 88 C48.34 88 47.68 88 47 88 C47 87.34 47 86.68 47 86 C42.61557269 83.80778635 38.27795816 84.35782427 35 88 Z " fill="#ffffff" transform="translate(154,88)"/>
<path d="M0 0 C0.66 0 1.32 0 2 0 C2.61875 0.6496875 2.61875 0.6496875 3.25 1.3125 C5.55654166 3.53666517 8.12268032 4.62128432 11 6 C11.99 6.66 12.98 7.32 14 8 C15.32567199 8.68177416 16.65753688 9.35191436 18 10 C17.01 10.495 17.01 10.495 16 11 C15.25708726 17.9509791 15.25708726 17.9509791 18.375 23.875 C19.24125 24.57625 20.1075 25.2775 21 26 C23.5931385 30.21274378 23.54313468 34.18699115 23 39 C21.45441817 43.17307095 19.88149141 45.7462308 16 48 C15.34 48 14.68 48 14 48 C13.67 48.66 13.34 49.32 13 50 C10.93514776 49.77023606 8.87308882 49.51529223 6.8125 49.25 C5.66394531 49.11078125 4.51539063 48.9715625 3.33203125 48.828125 C-0.40103888 47.90032797 -2.31494635 46.73056303 -5 44 C-5 43.01 -5 42.02 -5 41 C-5.66 40.67 -6.32 40.34 -7 40 C-6.39153841 28.01960108 -6.39153841 28.01960108 -3 24 C0.4137931 21 0.4137931 21 3 21 C2.88490339 19.58249437 2.75746342 18.16598831 2.625 16.75 C2.55539063 15.96109375 2.48578125 15.1721875 2.4140625 14.359375 C2.11510401 11.98203022 2.11510401 11.98203022 0.96875 9.96875 C-0.64442203 6.69036814 -0.12021467 3.60644013 0 0 Z M1 31 C-0.08568503 32.84267868 -0.08568503 32.84267868 0 35 C1.59514784 39.28611247 1.59514784 39.28611247 5 42 C9.03191305 42.53758841 10.5619036 42.3075996 13.9375 39.9375 C16.3369117 37.10359033 16.3369117 37.10359033 16.0625 33.375 C15.25872405 30.03623166 15.25872405 30.03623166 13.3125 28.0625 C8.03593807 25.63813371 4.473677 26.36843067 1 31 Z " fill="#ffffff" transform="translate(149,166)"/>
<path d="M0 0 C5.04020939 1.6800698 7.2268706 3.2268706 11 7 C13.16620544 8.29519995 13.16620544 8.29519995 15 9 C14.4740625 9.928125 14.4740625 9.928125 13.9375 10.875 C13.628125 11.57625 13.31875 12.2775 13 13 C13.33 13.66 13.66 14.32 14 15 C7.94977014 17.66557258 2.61085476 19.51030705 -4 20 C-3.67 19.34 -3.34 18.68 -3 18 C-0.9375 17.375 -0.9375 17.375 1 17 C0.01 16.67 -0.98 16.34 -2 16 C-2.24979445 14.08591243 -2.47408014 12.16848389 -2.6875 10.25 C-2.81511719 9.18265625 -2.94273438 8.1153125 -3.07421875 7.015625 C-2.99001814 3.59442134 -2.30925485 2.44579177 0 0 Z " fill="#ffffff" transform="translate(105,112)"/>
<path d="M0 0 C4 1 4 1 4 1 Z " fill="#ffffff" transform="translate(158,216)"/>
<path d="M0 0 C0.99 0.495 0.99 0.495 2 1 C1.67 1.66 1.34 2.32 1 3 C0.67 2.01 0.34 1.02 0 0 Z " fill="#ffffff" transform="translate(215,140)"/>
<path d="M0 0 C1 4 1 4 1 4 Z " fill="#ffffff" transform="translate(173,113)"/>
<path d="M0 0 C1 4 1 4 1 4 Z " fill="#ffffff" transform="translate(173,104)"/>
<path d="M0 0 C3 1 3 1 3 1 Z " fill="#ffffff" transform="translate(206,128)"/>
<path d="M0 0 C2 1 2 1 2 1 Z " fill="#ffffff" transform="translate(153,216)"/>
<path d="" fill="#ffffff" transform="translate(0,0)"/>
<path d="M0 0 C2 1 2 1 2 1 Z " fill="#ffffff" transform="translate(191,175)"/>
<path d="M0 0 C2 1 2 1 2 1 Z " fill="#ffffff" transform="translate(168,150)"/>
<path d="M0 0 C2 1 2 1 2 1 Z " fill="#ffffff" transform="translate(152,140)"/>
<path d="M0 0 C2 1 2 1 2 1 Z " fill="#ffffff" transform="translate(216,124)"/>
<path d="M0 0 C2 1 2 1 2 1 Z " fill="#ffffff" transform="translate(113,116)"/>
<path d="M0 0 C2 1 2 1 2 1 Z " fill="#ffffff" transform="translate(156,87)"/>
<path d="M0 0 C2 1 2 1 2 1 Z " fill="#ffffff" transform="translate(154,86)"/>
<path d="" fill="#ffffff" transform="translate(0,0)"/>
<path d="" fill="#ffffff" transform="translate(0,0)"/>
<path d="" fill="#ffffff" transform="translate(0,0)"/>
<path d="" fill="#ffffff" transform="translate(0,0)"/>
<path d="" fill="#ffffff" transform="translate(0,0)"/>
<path d="" fill="#ffffff" transform="translate(0,0)"/>
<path d="" fill="#ffffff" transform="translate(0,0)"/>
<path d="" fill="#ffffff" transform="translate(0,0)"/>
<path d="" fill="#ffffff" transform="translate(0,0)"/>
<path d="" fill="#ffffff" transform="translate(0,0)"/>
<path d="" fill="#ffffff" transform="translate(0,0)"/>
<path d="" fill="#ffffff" transform="translate(0,0)"/>
<path d="" fill="#ffffff" transform="translate(0,0)"/>
<path d="" fill="#ffffff" transform="translate(0,0)"/>
<path d="" fill="#ffffff" transform="translate(0,0)"/>
<path d="" fill="#ffffff" transform="translate(0,0)"/>
<path d="" fill="#ffffff" transform="translate(0,0)"/>
<path d="" fill="#ffffff" transform="translate(0,0)"/>
</svg>
